<svg xmlns="http://www.w3.org/2000/svg" width="1200" height="630" viewBox="0 0 1200 630" role="img" aria-label="KIND Intake Board preview image">
  <rect width="1200" height="630" fill="#f3f5f8"/>
  <rect x="48" y="42" width="1104" height="546" fill="#ffffff" stroke="#bac5d2" stroke-width="2"/>
  <rect x="48" y="42" width="1104" height="68" fill="#173a5d"/>
  <text x="82" y="86" font-family="Segoe UI, Arial, sans-serif" font-size="23" font-weight="800" fill="#ffffff">KIND: Intake Board</text>
  <rect x="940" y="61" width="126" height="30" fill="#ffffff" opacity="0.14"/>
  <text x="963" y="82" font-family="Consolas, monospace" font-size="14" font-weight="700" fill="#ffffff">TIER 1</text>
  <rect x="1080" y="61" width="42" height="30" fill="#ffffff" opacity="0.18"/>
  <text x="1092" y="82" font-family="Segoe UI, Arial, sans-serif" font-size="16" font-weight="800" fill="#ffffff">+</text>

  <text x="82" y="150" font-family="Consolas, monospace" font-size="15" font-weight="700" fill="#5f6b7a">CORE INTAKE REGISTRY</text>
  <text x="82" y="185" font-family="Segoe UI, Arial, sans-serif" font-size="30" font-weight="800" fill="#1e2937">Incoming animals, status, and next steps in one flat board.</text>

  <g font-family="Segoe UI, Arial, sans-serif">
    <rect x="82" y="224" width="148" height="86" fill="#f8fafc" stroke="#bac5d2"/>
    <text x="104" y="257" font-size="16" font-weight="700" fill="#627083">New intake</text>
    <text x="104" y="292" font-size="35" font-weight="800" fill="#1e2937">12</text>
    <rect x="250" y="224" width="148" height="86" fill="#f8fafc" stroke="#bac5d2"/>
    <text x="272" y="257" font-size="16" font-weight="700" fill="#627083">Hold</text>
    <text x="272" y="292" font-size="35" font-weight="800" fill="#c36b14">4</text>
    <rect x="418" y="224" width="148" height="86" fill="#f8fafc" stroke="#bac5d2"/>
    <text x="440" y="257" font-size="16" font-weight="700" fill="#627083">Ready</text>
    <text x="440" y="292" font-size="35" font-weight="800" fill="#277a3f">8</text>
    <rect x="586" y="224" width="148" height="86" fill="#f8fafc" stroke="#bac5d2"/>
    <text x="608" y="257" font-size="16" font-weight="700" fill="#627083">Urgent</text>
    <text x="608" y="292" font-size="35" font-weight="800" fill="#b23a3a">3</text>
  </g>

  <rect x="82" y="344" width="1036" height="184" fill="#ffffff" stroke="#bac5d2"/>
  <rect x="82" y="344" width="1036" height="42" fill="#eef4fb"/>
  <g font-family="Consolas, monospace" font-size="15" font-weight="700" fill="#173a5d">
    <text x="108" y="371">NAME</text>
    <text x="288" y="371">TYPE</text>
    <text x="458" y="371">STATUS</text>
    <text x="660" y="371">SOURCE</text>
    <text x="878" y="371">NEXT STEP</text>
  </g>
  <g font-family="Segoe UI, Arial, sans-serif" font-size="18" fill="#1e2937">
    <line x1="82" y1="434" x2="1118" y2="434" stroke="#d7dde5"/>
    <line x1="82" y1="482" x2="1118" y2="482" stroke="#d7dde5"/>
    <text x="108" y="416" font-weight="700">Mabel</text>
    <text x="288" y="416">Dog</text>
    <rect x="458" y="397" width="112" height="28" fill="#fff7ed" stroke="#e6c18c"/>
    <text x="474" y="417" font-size="14" font-weight="800" fill="#9a540d">INTAKE</text>
    <text x="660" y="416">Owner surrender</text>
    <text x="878" y="416">Vet check</text>
    <text x="108" y="464" font-weight="700">Cricket</text>
    <text x="288" y="464">Cat</text>
    <rect x="458" y="445" width="112" height="28" fill="#eefbf2" stroke="#9ad3aa"/>
    <text x="476" y="465" font-size="14" font-weight="800" fill="#277a3f">READY</text>
    <text x="660" y="464">Transfer</text>
    <text x="878" y="464">Photo update</text>
    <text x="108" y="512" font-weight="700">Otto</text>
    <text x="288" y="512">Dog</text>
    <rect x="458" y="493" width="112" height="28" fill="#fff1f1" stroke="#e6baba"/>
    <text x="480" y="513" font-size="14" font-weight="800" fill="#b23a3a">URGENT</text>
    <text x="660" y="512">Found stray</text>
    <text x="878" y="512">Medication</text>
  </g>
</svg>
