<svg xmlns="http://www.w3.org/2000/svg" width="1200" height="630" viewBox="0 0 1200 630" role="img" aria-label="KIND Medical Tracker preview image">
  <rect width="1200" height="630" fill="#f3f5f8"/>
  <rect x="48" y="42" width="1104" height="546" fill="#ffffff" stroke="#bac5d2" stroke-width="2"/>
  <rect x="48" y="42" width="1104" height="68" fill="#173a5d"/>
  <text x="82" y="86" font-family="Segoe UI, Arial, sans-serif" font-size="23" font-weight="800" fill="#ffffff">KIND: Medical Tracker</text>
  <rect x="940" y="61" width="126" height="30" fill="#ffffff" opacity="0.14"/>
  <text x="963" y="82" font-family="Consolas, monospace" font-size="14" font-weight="700" fill="#ffffff">TIER 3</text>
  <rect x="1080" y="61" width="42" height="30" fill="#ffffff" opacity="0.18"/>
  <text x="1092" y="82" font-family="Segoe UI, Arial, sans-serif" font-size="16" font-weight="800" fill="#ffffff">+</text>

  <text x="82" y="150" font-family="Consolas, monospace" font-size="15" font-weight="700" fill="#5f6b7a">INTAKE + FOSTER + MEDICAL INTELLIGENCE</text>
  <text x="82" y="185" font-family="Segoe UI, Arial, sans-serif" font-size="30" font-weight="800" fill="#1e2937">Care history, alerts, and follow-up work stay visible.</text>

  <rect x="82" y="224" width="326" height="304" fill="#ffffff" stroke="#bac5d2"/>
  <rect x="82" y="224" width="326" height="48" fill="#fff1f1"/>
  <text x="108" y="255" font-family="Segoe UI, Arial, sans-serif" font-size="19" font-weight="800" fill="#b23a3a">Medical Alerts</text>
  <g font-family="Segoe UI, Arial, sans-serif">
    <rect x="108" y="304" width="254" height="54" fill="#fff1f1" stroke="#e6baba"/>
    <text x="128" y="326" font-size="15" font-weight="800" fill="#b23a3a">OVERDUE</text>
    <text x="128" y="348" font-size="17" font-weight="700" fill="#1e2937">Booster due for Otto</text>
    <rect x="108" y="378" width="254" height="54" fill="#fff7ed" stroke="#e6c18c"/>
    <text x="128" y="400" font-size="15" font-weight="800" fill="#9a540d">SOON</text>
    <text x="128" y="422" font-size="17" font-weight="700" fill="#1e2937">Recheck Mabel incision</text>
    <rect x="108" y="452" width="254" height="54" fill="#eef4fb" stroke="#93b8df"/>
    <text x="128" y="474" font-size="15" font-weight="800" fill="#1f5fa8">TRACK</text>
    <text x="128" y="496" font-size="17" font-weight="700" fill="#1e2937">Medication refill watch</text>
  </g>

  <rect x="442" y="224" width="676" height="304" fill="#ffffff" stroke="#bac5d2"/>
  <rect x="442" y="224" width="676" height="42" fill="#eef4fb"/>
  <text x="468" y="251" font-family="Segoe UI, Arial, sans-serif" font-size="19" font-weight="800" fill="#173a5d">Animal Medical Timeline</text>
  <g font-family="Segoe UI, Arial, sans-serif" fill="#1e2937">
    <line x1="492" y1="304" x2="492" y2="490" stroke="#bac5d2" stroke-width="3"/>
    <circle cx="492" cy="318" r="10" fill="#b23a3a"/>
    <text x="526" y="314" font-size="16" font-weight="800" fill="#b23a3a">Today</text>
    <text x="526" y="337" font-size="18" font-weight="700">Pain medication check</text>
    <text x="830" y="337" font-size="16" fill="#627083">Otto</text>
    <circle cx="492" cy="386" r="10" fill="#c36b14"/>
    <text x="526" y="382" font-size="16" font-weight="800" fill="#9a540d">May 10</text>
    <text x="526" y="405" font-size="18" font-weight="700">Vet recheck and wound photo</text>
    <text x="830" y="405" font-size="16" fill="#627083">Mabel</text>
    <circle cx="492" cy="454" r="10" fill="#277a3f"/>
    <text x="526" y="450" font-size="16" font-weight="800" fill="#277a3f">Done</text>
    <text x="526" y="473" font-size="18" font-weight="700">Vaccination recorded</text>
    <text x="830" y="473" font-size="16" fill="#627083">Cricket</text>
  </g>
  <rect x="934" y="298" width="140" height="52" fill="#eefbf2" stroke="#9ad3aa"/>
  <text x="1004" y="320" text-anchor="middle" font-family="Segoe UI, Arial, sans-serif" font-size="14" font-weight="800" fill="#277a3f">PRINTABLE</text>
  <text x="1004" y="340" text-anchor="middle" font-family="Segoe UI, Arial, sans-serif" font-size="15" font-weight="700" fill="#1e2937">care summary</text>
  <rect x="934" y="372" width="140" height="52" fill="#eef4fb" stroke="#93b8df"/>
  <text x="1004" y="394" text-anchor="middle" font-family="Segoe UI, Arial, sans-serif" font-size="14" font-weight="800" fill="#1f5fa8">GLOBAL</text>
  <text x="1004" y="414" text-anchor="middle" font-family="Segoe UI, Arial, sans-serif" font-size="15" font-weight="700" fill="#1e2937">care feed</text>
</svg>
